<?xml version="1.0" encoding="iso-8859-1"?>
<!-- Generator: Adobe Illustrator 19.0.0, SVG Export Plug-In . SVG Version: 6.00 Build 0)  -->
<svg version="1.1" id="Capa_1" xmlns="http://www.w3.org/2000/svg" xmlns:xlink="http://www.w3.org/1999/xlink" x="0px" y="0px"
	 viewBox="0 0 409.6 409.6" style="enable-background:new 0 0 409.6 409.6;" xml:space="preserve">
<circle style="fill:#EA8953;" cx="204.8" cy="204.8" r="204.8"/>
<path style="opacity:0.1;enable-background:new    ;" d="M409.6,204.8c0-2.985-0.098-5.948-0.225-8.903l-90.285-90.285
	c-0.476-0.565-0.993-1.082-1.558-1.558c-2.228-1.877-5.063-3.055-8.187-3.055H130.615c-7.04,0-12.8,5.76-12.8,12.8v142.165
	l-24.789,28.117c-6.571,7.509-7.552,17.835-1.664,22.443l102.803,102.803c3.523,0.18,7.068,0.273,10.636,0.273
	C317.908,409.6,409.6,317.908,409.6,204.8z"/>
<path style="fill:#EBF0F3;" d="M309.334,101.018H130.633c-7.069,0-12.799,5.731-12.799,12.799v178.701
	c0,7.069,5.731,12.799,12.799,12.799h178.701c7.069,0,12.799-5.731,12.799-12.799V113.818
	C322.133,106.749,316.403,101.018,309.334,101.018z"/>
<path style="fill:#F6C358;" d="M300.986,255.848c4.295,0,7.556-3.951,6.663-8.152c-3.748-17.635-19.411-30.864-38.163-30.864
	s-34.414,13.229-38.163,30.864c-0.893,4.201,2.368,8.152,6.663,8.152H300.986z"/>
<g>
	<path style="fill:#FCD462;" d="M231.324,247.696c3.748-17.635,19.411-30.864,38.163-30.864v39.015h-31.5
		C233.692,255.848,230.431,251.897,231.324,247.696z"/>
	<path style="fill:#FCD462;" d="M288.15,194.476c0,10.307-8.356,23.052-18.663,23.052c-10.307,0-18.663-12.744-18.663-23.052
		s8.356-18.663,18.663-18.663C279.794,175.813,288.15,184.169,288.15,194.476z"/>
</g>
<path style="fill:#F6C358;" d="M269.486,217.527c10.307,0,18.663-12.744,18.663-23.052s-8.356-18.663-18.663-18.663V217.527z"/>
<path style="fill:#64798A;" d="M322.133,113.818c0-7.069-5.73-12.799-12.799-12.799H130.633c-7.069,0-12.799,5.731-12.799,12.799
	v17.152h204.299V113.818z"/>
<rect x="117.833" y="130.97" style="fill:#3A556A;" width="204.301" height="9.31"/>
<circle style="fill:#FCD462;" cx="255.061" cy="116.565" r="7.386"/>
<circle style="fill:#44C4A1;" cx="275.029" cy="116.565" r="7.386"/>
<circle style="fill:#E56353;" cx="295.04" cy="116.565" r="7.386"/>
<rect x="136.672" y="231.804" transform="matrix(-0.7874 -0.6165 0.6165 -0.7874 109.2792 516.8016)" style="fill:#DC8744;" width="14.191" height="15.501"/>
<path style="fill:#D15241;" d="M91.357,306.515L91.357,306.515c-5.881-4.605-4.905-14.915,1.655-22.425l38.843-44.005l14.28,11.181
	l-33.404,48.264C107.012,307.699,97.238,311.12,91.357,306.515z"/>
<g>
	<polygon style="fill:#D5D6DB;" points="136.935,264.41 121.3,252.168 127.7,244.841 142.513,256.44 	"/>
	<polygon style="fill:#D5D6DB;" points="125.633,280.558 108.334,267.013 116.125,258.093 132.424,270.855 	"/>
</g>
<g transform="matrix(0.6165 -0.78736 0.78736 0.6165 -27.04 63.62)">
	
		<ellipse transform="matrix(-0.6165 -0.7874 0.7874 -0.6165 -170.8438 398.5146)" style="fill:#64798A;" cx="11.631" cy="240.864" rx="43.763" ry="43.763"/>
	
		<ellipse transform="matrix(-0.6165 -0.7874 0.7874 -0.6165 -170.8438 398.5146)" style="fill:#D5D6DB;" cx="11.631" cy="240.864" rx="30.426" ry="30.426"/>
</g>
<g>
</g>
<g>
</g>
<g>
</g>
<g>
</g>
<g>
</g>
<g>
</g>
<g>
</g>
<g>
</g>
<g>
</g>
<g>
</g>
<g>
</g>
<g>
</g>
<g>
</g>
<g>
</g>
<g>
</g>
</svg>
